<svg id="After_Effects" data-name="After Effects" xmlns="http://www.w3.org/2000/svg" viewBox="0 0 489.29 489.37"><defs><style>.cls-1{fill:#1d1d21;}.cls-2{fill:#17171c;}.cls-3{fill:#212228;}.cls-4{fill:#1f2023;}.cls-5{fill:#202227;}.cls-6{fill:#212126;}.cls-7{fill:#202125;}.cls-8{fill:#1a1b20;}.cls-9{fill:#1e1e22;}.cls-10{fill:#222328;}.cls-11{fill:#212122;}.cls-12{fill:#141619;}.cls-13{fill:#589b99;}.cls-14{fill:#66b599;}.cls-15{fill:#69baa0;}.cls-16{fill:#18181e;}.cls-17{fill:#62abaa;}.cls-18{fill:#64aeae;}.cls-19{fill:#5797a4;}.cls-20{fill:#66b378;}.cls-21{fill:#66b482;}.cls-22{fill:#56958b;}.cls-23{fill:#62ab79;}.cls-24{fill:#5a9e6d;}.cls-25{fill:#17181d;}.cls-26{fill:#5ca186;}.cls-27{fill:#5da290;}.cls-28{fill:#5797a1;}.cls-29{fill:#508b9a;}.cls-30{fill:#62ac89;}.cls-31{fill:#1d1e22;}.cls-32{fill:#67b792;}.cls-33{fill:#66b398;}.cls-34{fill:#5ca174;}.cls-35{fill:#64af72;}.cls-36{fill:#5da283;}.cls-37{fill:#66b477;}.cls-38{fill:#66b37a;}.cls-39{fill:#66b38e;}</style></defs><title>LC</title><g id="Gb5hcq"><path class="cls-1" d="M166.85,12.43H188.3c6.4,2.21,9.31,7.86,12.49,13.06,13.36,21.86,26.24,44,39.87,65.7,13.28,21.08,25.8,42.63,39.13,63.68C285,163,291.55,171.16,292,181.74c-2.51,9.94-9.47,17.64-13.52,26.82-0.44,1-2,1.16-3.2,1.09-33.63,2.06-67.23,4.51-100.85,6.62-7.93.5-16,3.28-23.65-1.43-2.34-3.62-1.55-7.71-1.73-11.64-0.49-10.76.78-21.54-.54-32.28,0-5.43.78-10.84,0.45-16.29-0.5-8.34-3-10.88-11.33-11.31-10.63-.54-21.32.79-31.91-0.87-3.53-2.16-2.7-5.26-1.46-8.14,8.09-18.7,17.32-36.87,25.85-55.36,3.95-8.55,9.27-16.44,12.05-25.56,1.37-4.51,3-9,6.62-12.4,2.12-2,2.81-4.89,3.68-7.61C155.11,24.94,160.69,18.48,166.85,12.43Z" transform="translate(-12.28 -12.18)"/><path class="cls-2" d="M351.3,501.43H281.24a17.72,17.72,0,0,1-8.3-8.42c-17.2-35.84-34.64-71.56-51.5-107.56-1.28-2.74-3.15-5.64.12-8.39,4.37-2.52,9.17-1.23,13.79-1.46,3.75-.19,5.34-1.15,5.49-5.72,0.47-14.73.66-29.45-.15-44.16-0.24-4.35.47-7.64,5.1-9.61,5.68-2.41,10.51-6.47,16-9.27,6.54-3.32,9.65-1.47,12.43,5.5a97.08,97.08,0,0,0,18.89,30c7,7.57,14,15.31,23.74,19.68a7.67,7.67,0,0,1,3.48,5.94c0.67,6.92,5.34,9.41,11.32,11,18.61,4.92,37.11,10.23,55.52,15.82,11,3.33,11.21,4.56,6.85,15.08-6.88,16.6-14.2,33-22.52,48.94A19.84,19.84,0,0,0,369.24,469c-1.09,2.27-3.15,4.13-2.94,7a125.39,125.39,0,0,0-6.69,14.77C357.91,495.25,355.44,498.93,351.3,501.43Z" transform="translate(-12.28 -12.18)"/><path class="cls-3" d="M285.53,12.43H431.37c12.23,1.65,24.52.51,36.77,0.62,7.75,0.07,15.56,1,23.28-.62h5.72c2.85,2.62.37,4.44-.89,6.56-10.12,17-23.06,32-34.62,48-12.42,17.17-25.62,33.74-38.06,50.88a208.19,208.19,0,0,1-18.38,21.76c-5.54,1-11.13.11-16.68,0.53-10.2-1.87-20.11,1.34-30.18,1.7-1.94,0-3.86,1-5.81.14-5.45-4.19-8-10.55-11-16.26-16.29-30.86-32.42-61.8-50.26-91.8-2.92-4.91-4.41-10.52-7.51-15.36C282,15.89,283.75,14.13,285.53,12.43Z" transform="translate(-12.28 -12.18)"/><path class="cls-3" d="M222.59,378.47c4.31,9.52,8.45,19.12,13,28.54q22.72,47.27,45.68,94.42H95.36c-3.07-2.47-1.69-5-.11-7.54q13.86-22.46,28-44.74,17.51-27.74,35.13-55.42c5.4-8.44,9.88-17.7,18.13-24.06,10.46-.9,20.93-0.53,31.38-0.25,2.4,0.07,4.73.22,7-.64a14.23,14.23,0,0,1,5.18,1.37C222.24,372.51,223.75,375.08,222.59,378.47Z" transform="translate(-12.28 -12.18)"/><path class="cls-4" d="M166.85,12.43c-1.51,6-4.78,11-8,16.34A208.5,208.5,0,0,0,147.2,51.08c-13.23,29.8-28,58.85-41.82,88.36-1,3.7-4.19,3.45-6.94,3.63A136.26,136.26,0,0,1,82,143c-12.4.59-14.44,2.65-14.54,14.92-0.08,10.46.06,20.92-.07,31.38,0,3.28.38,6.71-1.76,9.63-5.6,3-7.58-.66-8.18-5-1.55-11.3-4.75-22.23-6.88-33.36-3.77-19.76-7.13-39.59-11-59.33-3.26-16.45-7.41-32.82-9.08-49.6C29.41,41,25.18,30.89,25.61,20c0.12-3-.12-5.64,2.55-7.58H166.85Z" transform="translate(-12.28 -12.18)"/><path class="cls-5" d="M76.77,501.43c-19.78,0-39.56-.16-59.34.13-4.28.06-5.15-.86-5.13-5.13,0.19-46,.12-92,0.12-138,2.24-4,5.61-5.9,10.09-6.92,9.23-2.11,18.27-5,27.47-7.23,5.22-1.26,10.56-3.08,15.72.36,2.45,3.71,1.38,8.09,2.31,12.09,0.2,2,1.1,4.21,0,6-3,4.9.25,5.24,3.8,5.48,9.45,1.78,19,.58,28.47.91,4.74,0.17,9.52-.35,14.14,1.16l2.36,0.47c3.8,2.83,3.2,6.71,1.95,10.31-7.56,21.83-13.43,44.17-20.41,66.18C93.52,462.5,89.56,478,83.78,492.85,82.33,496.58,80.44,499.66,76.77,501.43Z" transform="translate(-12.28 -12.18)"/><path class="cls-6" d="M289.76,180.89c-1.12-9.26-8.41-15.25-12.59-22.84-10.15-18.45-21.7-36.14-32.71-54.12S223,67.56,211.68,49.79C203.78,37.4,196.5,24.62,188.3,12.43h84.36c4.35,3.32,4.05,8.46,4.66,13C282,60.68,286.11,96,290.66,131.3c0.46,3.54,1.54,6.95,1.84,10.5-2,4.27.54,8.28,1.12,12.29,1,6.89-.06,14,2.32,20.69,1.06,3-1.62,4.19-3,6C291.88,181.5,290.85,181.91,289.76,180.89Z" transform="translate(-12.28 -12.18)"/><path class="cls-3" d="M28.16,12.43C29.41,32.78,34.36,52.59,38,72.5c3.68,20.08,6.67,40.41,12.33,60.14,2,7.06,1.87,14.54,2.85,21.79,1.63,12,7.54,23.08,7,35.49a10.83,10.83,0,0,0,3.43,8.37c3.92,1.18,3.36,4.62,3.67,7.52,0.27,2.56.27,5.14,0.55,7.71a50,50,0,0,1-1.79,6.36c-2.14,2.72-5.25,2.34-7.81,1.56-6.48-2-13.34-2.35-19.59-5.59-5.53-2.87-12.41-1.72-18.15-5-2.86-1.64-5.9-2.84-8.12-5.4,0-62.46.08-124.92-.15-187.38,0-5,1.1-6.41,5.91-5.73C21.46,12.8,24.83,12.43,28.16,12.43Z" transform="translate(-12.28 -12.18)"/><path class="cls-5" d="M501.43,15.29v173c-2.13,2.24-4.4,4.18-7.62,4.72q-18,3-36,5.67c-2.77.41-5.73,0.55-8.27-1.25-4.21-3-1.92-6.66-.75-10a24.46,24.46,0,0,1,4.07-7.27c1.54-3.72,3-7.47,4.81-11.12,3.77-7.8,3.38-8.89-4.21-13.65a21.13,21.13,0,0,1-2.86-2.13c-2.17-2.84-8.17-.52-8.3-6.11,6.24-18.66,14.69-36.46,21.78-54.79,7.36-19,16.61-37.26,23.08-56.63,2.37-7.09,7.47-12.64,10.34-19.42C498.28,14.41,499.68,13.87,501.43,15.29Z" transform="translate(-12.28 -12.18)"/><path class="cls-7" d="M288.39,142.55q-7.58-59.73-15.12-119.46c-0.44-3.52-.42-7.1-0.61-10.66h12.87c3.62,7.71,6.69,15.75,11,23.07,10.69,18.26,20.46,37,30.54,55.58,8.71,16,17.52,32,25.67,48.37,0.26,2.05-.2,3.81-2.33,4.58a224.86,224.86,0,0,0-30.89,13.64,3,3,0,0,1-2.71-.24c-5-3.81-11.2-4.55-16.79-6.86C295.51,148.71,291,147,288.39,142.55Z" transform="translate(-12.28 -12.18)"/><path class="cls-8" d="M450.17,195.47c17.28-1,34.1-5.32,51.26-7.17v80.07c-6.28,13.93-18.82,22.32-29.07,32.73a5.54,5.54,0,0,1-5.91,1.41c-3.55-1.93-5.39-5-7-8.7-8-18.18-15.16-36.75-23.22-54.91-1.49-3.36-1.63-7.17-3.88-10.22,0.2-11.89,7-21.21,12.29-31.14C445.78,195.36,447.87,194.94,450.17,195.47Z" transform="translate(-12.28 -12.18)"/><path class="cls-8" d="M63.66,345.56c-17.49,2.65-34.25,8.19-51.23,12.89V282.67c3.25-10.16,10.91-17.19,17.55-25,8.76-10.29,17.4-20.69,26-31.08,2.67-3.21,6-7.77,10.67-1.78,1.53,5.4-1.09,11.15,1.49,16.44-1.4,11.5-.28,23.07-0.95,34.6,0.45,20.2.26,40.41,0.1,60.61C67.31,339.8,68.16,343.87,63.66,345.56Z" transform="translate(-12.28 -12.18)"/><path class="cls-9" d="M76.77,501.43c10.46-26.83,17.79-54.68,26.07-82.19,4.64-15.41,11.06-30.33,14-46.26,1.08-3.56,4.19-3.52,6.95-3.59q22.35-.56,44.71,0c2.77,0.07,5.86,0,7,3.59-10.21,16.54-20.34,33.14-30.66,49.61-11.7,18.66-24.13,36.84-35.18,55.93-4.48,7.75-10.14,14.85-14.22,22.9H76.77Z" transform="translate(-12.28 -12.18)"/><path class="cls-3" d="M501.43,318.41V460c-8.41,6.76-18,6.44-27.82,4.58-2.13-3.09-2.25-6.81-2.4-10.25-1.16-27.46-4.54-54.83-4.48-82.3,0-16.69-1.59-33.14-2.92-49.67-0.41-5.16,1.72-10.47-1-15.49a5.25,5.25,0,0,1,2.72-4c5.12-1.39,9.79-.27,14.37,2.25,5.18,2.84,10,6.5,16.09,7.45C499.17,313,499.44,316.6,501.43,318.41Z" transform="translate(-12.28 -12.18)"/><path class="cls-9" d="M501.43,15.29c-4.69,5.49-7.2,12.25-9.6,18.77-10.43,28.29-23.23,55.61-34.1,83.71-3.84,9.93-7.42,20-13.23,29-1.71,2.86-4.22,2.44-6.87,1.75-3-.77-5.69-2.41-8.85-2.46-6.33-1.6-12.73-2.85-19.08-4.37-2.54-.61-5.32-1.13-4-4.92,1.71-7.1,7.58-11.41,11.65-16.87C442.55,86,468.13,52.32,493.55,18.54a60.12,60.12,0,0,0,3.59-6.11C499,12.81,502.31,10.88,501.43,15.29Z" transform="translate(-12.28 -12.18)"/><path class="cls-3" d="M472.83,501.43H365.6c-2.29-3-.34-5.6,1.44-7.58,8.18-9.11,16.62-18,26.27-25.62,20.91-3.47,42.08-4.56,63.08-7.21,2.34-.3,4.77-0.26,6.89,1.19,9.3,9.84,8.72,22.95,11.54,34.93C475.25,499,474,500.25,472.83,501.43Z" transform="translate(-12.28 -12.18)"/><path class="cls-5" d="M63.66,224.06c-10.47,10-18.39,22.15-28.2,32.71-7.87,8.46-14.48,18-23,25.9V205.46c10.77,2.82,21.89,4,32.28,8.77,5.85,2.67,12.81,3,19,5.52Q66.18,221.91,63.66,224.06Z" transform="translate(-12.28 -12.18)"/><path class="cls-10" d="M472.83,501.43c-4.2-12.16-4.57-25.35-10-37.18a4.31,4.31,0,0,1,.67-2.43c2.84-2.84,6-2.39,9.33-1a11.2,11.2,0,0,1,1.43,2L501.43,460c0,12.63-.13,25.26.09,37.89,0.05,3.08-.58,3.77-3.67,3.67C489.52,501.25,481.17,501.43,472.83,501.43Z" transform="translate(-12.28 -12.18)"/><path class="cls-5" d="M501.43,318.41c-12.64-1.88-22-11.57-34.32-14.3a1.81,1.81,0,0,1-.67-2.29l0.66-.58q14.23-13.87,28.48-27.73c1.86-1.81,3.9-3.44,5.85-5.15v50Z" transform="translate(-12.28 -12.18)"/><path class="cls-7" d="M392.76,471.41l-27.17,30H351.3l11.44-27.16c8-5.63,17.34-4.77,26.33-5.57C390.9,468.53,392.15,469.65,392.76,471.41Z" transform="translate(-12.28 -12.18)"/><path class="cls-11" d="M491.42,12.43c-3.55,1.87-7.4,1.4-11.17,1.41-13.52,0-27,0-40.56,0-2.86,0-5.71,0-8.32-1.42h60.05Z" transform="translate(-12.28 -12.18)"/><path class="cls-12" d="M152.8,214.05c25.76-1.77,51.51-3.63,77.28-5.28,15.13-1,30.27-1.61,45.41-2.41,2.26,3.81,1.62,7.66.46,11.66-2.22,7.71-4.76,15.38-4.72,23.55a104.7,104.7,0,0,1-2.55,13.93c-7.94,9.53-13.24,21-21.59,30.18-11.54,12.72-21.17,27-32.76,39.66a2.66,2.66,0,0,1-1.35.44c-9.77,1.43-19.57-.46-29.34.42-7.58.13-15.17,0.27-22.74-.07-8.44-.38-11.19-3.41-11.83-11.84-1-13.64,1.61-27.17,1-40.79,0-1-.07-1.91-0.11-2.86-1.85-16.76-.82-33.57-0.71-50.37C149.26,217.7,149.49,214.9,152.8,214.05Z" transform="translate(-12.28 -12.18)"/><path class="cls-13" d="M81.08,139.92l24.29-.48c13.74,0.08,27.48.34,41.22,0.15,4.63-.06,6.25,1.37,6,6-0.38,8-.24,16.1-0.31,24.16a19.34,19.34,0,0,1-6.82,9.37c-19.25,13.5-37.43,28.47-56.77,41.85-3.36,2.32-6.72,4.46-11.08,2.69a3.69,3.69,0,0,1-.94-2.26c-0.7-24.49-1.82-49,.78-73.41C77.83,144.89,78.1,141.82,81.08,139.92Z" transform="translate(-12.28 -12.18)"/><path class="cls-14" d="M79.71,222.66c19-12.32,36.36-26.76,54.66-40q9-6.47,18-12.9l0.48,44.27-0.47,57.15c-1.89,2.39-3.71,1.62-6.17.51-13.47-6.09-24.86-15.46-37.2-23.31-8.39-5.33-16.64-10.89-24.78-16.58-2.62-1.83-5.82-3.42-5.75-7.43A5.41,5.41,0,0,1,79.71,222.66Z" transform="translate(-12.28 -12.18)"/><path class="cls-15" d="M267.18,241.19c0.93-12,4.32-23.51,8.31-34.82,3.78-9,9-17.29,14.27-25.47l1.47-1.13a14.52,14.52,0,0,1,10.63-.15c23,7.64,45.89,15.9,69,23.49,3.44,1.13,6.19,3.39,9.24,5.19a3.34,3.34,0,0,1,1,2,3.56,3.56,0,0,1-.89,2.11c-9.42,6.22-20.54,7.62-31.06,10.51q-36.35,10-72.8,19.51C273.15,243.26,269.76,244.73,267.18,241.19Z" transform="translate(-12.28 -12.18)"/><path class="cls-4" d="M392.76,471.41c-10,1.38-19.94,2.7-30,2.86l2.85-5.72c5.16-6.84,8.44-14.83,12.24-22.35,6.22-12.32,13.39-24,20.62-35.65,5.72-9.25,10.2-19.23,15.89-28.56,2.41-4,6.83-6.72,7.35-11.83,4.59-3.45,10.14-4.21,15.48-5.57a108.72,108.72,0,0,0,15.09-6.31c9.54-4.57,9.54-4.58,5.48-14.24-2-5.49-4.36-10.8-6.59-16.19a4.28,4.28,0,0,1-.48-5.12c3.65-3.14,5.19-7.7,7.69-11.61,1.72-2.7,3.47-5.25,7.33-4.14,3,13.53,2.68,27.35,3.48,41.05,1,17.76.73,35.64,2.48,53.32,1.79,18.15,1.7,36.37,3.44,54.5a13.82,13.82,0,0,1-.83,7h-1.43c-2.63,1.84-5.95-.41-8.58,1.43h-1.43Z" transform="translate(-12.28 -12.18)"/><path class="cls-16" d="M214,322.46c4.12-7.46,10.26-13.56,14.86-20.47,9.42-14.14,22.73-25.14,30.89-40.1a19.46,19.46,0,0,1,5.49-6.39c4.08,0.52,3.61,4,4,6.58,2,15.07,3.9,30.14,9.91,44.3-0.22,3.39,2,5.71,3.49,8.46a142.88,142.88,0,0,0,28,36.13c2.59,2.47,7.75,2.66,7.06,8,0.06,2,.28,4.17-2.14,5.19-15.74-7.24-26-20.23-35.37-34-3.7-5.47-7.41-11.08-9-17.71-0.73-3.11-3.11-3.87-5.45-2.67-6.9,3.54-13.68,7.35-20.34,11.33-2.41,1.44-1.5,4.25-1.49,6.58,0,14.24,0,28.49.16,42.73,0.08,5.71-2.15,8.37-8,8.1-4.5-.21-9,0-13.53,0L219.77,373c0.42-3.69,3.48-3.44,5.91-3.71,6.4-.72,9-4.48,9-10.55,0.07-7.33.25-14.66,0-22-0.31-7.64-2.68-9.62-10.47-10.51C220.63,325.81,215.79,328,214,322.46Z" transform="translate(-12.28 -12.18)"/><path class="cls-1" d="M315.55,364.17l0-5.52c2.24-3.46,4.82-1.84,7.43-.54,8.29,4.1,16.52,8.37,25.59,10.62,20.85,5.22,41.77,7.2,62.85,1.27,4.12,1.68,9.66-3,12.86,2.83Q406.1,403.71,388,434.59c-5.61,9.54-11.31,19-16.87,28.59a13,13,0,0,1-5.5,5.36c6.93-20,16.4-39,24.4-58.6,3.81-9.35,3.92-9.63-5.38-12.26-18.52-5.24-37-10.66-55.64-15.44-7.73-2-13.4-4.62-12.35-14C316.78,367,315.94,365.54,315.55,364.17Z" transform="translate(-12.28 -12.18)"/><path class="cls-17" d="M379.92,209.71l-88.7-30,2.82-4.35c1.46-9.91,13.52-20.53,22.89-20.17,10.86-7.69,23.25-11.9,35.79-15.79l4.3-.64c5,4.13,7.16,9.57,9.07,15.69,3.89,12.46,8.54,24.7,12.85,37,1.25,3.58,2.55,7.2,3.43,10.84C382.93,204.71,385.1,208.79,379.92,209.71Z" transform="translate(-12.28 -12.18)"/><path class="cls-18" d="M379.92,209.71c-1-9.73-5.6-18.4-8.52-27.54-4.3-13.44-9.61-26.56-14.4-39.85-0.37-1,0-2.33,0-3.51,10.42-1.77,20.81-3.87,31.49-3.2,6.08,2.29,11.69,5.29,16.11,10.22,7.76,8.65,17.33,15.55,24.27,25a11.13,11.13,0,0,1,.29,2.12,4.15,4.15,0,0,1-.31,2.1c-12.28,12.33-26.55,22.32-39.77,33.54-2.45,2.08-5.58,5.29-9.21,1.19Z" transform="translate(-12.28 -12.18)"/><path class="cls-19" d="M427,171.24c-14.19-10.43-25-24.47-38.53-35.64,5.73,0.21,11.35,2,17.15,1.15,7.86,2.94,16.56,2.41,24.27,5.95,4.14,3.77,3.25,8.52,2.55,13.23-0.45,3.05-.29,6.18-1.12,9.19C430.2,167.37,429.67,170,427,171.24Z" transform="translate(-12.28 -12.18)"/><path class="cls-20" d="M152.33,272.67c0.08,13.32.12,26.64,0.24,40,0.07,8.34,1.73,10,10.1,10.07,7.13,0.1,14.26.16,21.4,0.25,3.58,1.73,6.8,3.79,8.92,7.4,6.75,11.43,14.3,22.37,21,33.8,1.49,2.53,4,5.08,1.4,8.37l-40,.48H116.81l-1.42-.47c-2.56-1.91-3.43-4-2.16-7.35,11.11-29,22.39-58,32.92-87.22,0.87-2.4,2.58-3.89,4.38-5.42A1.44,1.44,0,0,1,152.33,272.67Z" transform="translate(-12.28 -12.18)"/><path class="cls-21" d="M215.43,372.5l-31.38-49.57,30-.48c6.42,0.08,12.84.3,19.26,0.18,3.48-.06,5.17.76,5.12,4.72q-0.28,20.34,0,40.69c0.05,3.91-1.56,4.87-5.08,4.75-4.51-.16-9,0.1-13.55.18Z" transform="translate(-12.28 -12.18)"/><path class="cls-22" d="M81.08,139.92c-2,25-1.27,50-1.55,75,0,2.57-.85,5.13-1.3,7.7-6.44,2.22-10,.09-14.09-8.5L63.67,198.3c0.08-16.79.41-33.58,0.1-50.36-0.12-6.25,1.32-9.33,8.11-8.31A75.63,75.63,0,0,0,81.08,139.92Z" transform="translate(-12.28 -12.18)"/><path class="cls-23" d="M151.12,272.68c-5.05,20.24-13.83,39.14-21,58.61-5.06,13.68-9.81,27.47-14.7,41.22H69.65c-5.69-3.16-3.69-9.35-5.52-14l-0.48-12.91,0.49-70.06c3.33-4.07,8.14-4.89,12.79-4.77,18.3,0.46,36.5-1.83,54.79-1.68C138.47,269.1,145,269.87,151.12,272.68Z" transform="translate(-12.28 -12.18)"/><path class="cls-24" d="M64.13,358.47l5.52,14c-4.1.83-6.18-.51-5.77-5C64.16,364.5,64.06,361.48,64.13,358.47Z" transform="translate(-12.28 -12.18)"/><path class="cls-25" d="M316.94,155.24c-8.4,5.85-16.44,12.12-22.89,20.17-4-5-2.64-11.22-3.82-16.85-1.1-5.23-1.26-10.67-1.83-16l23.84,8.7A7.77,7.77,0,0,1,316.94,155.24Z" transform="translate(-12.28 -12.18)"/><path class="cls-26" d="M64.15,214.09l14.09,8.5,1.47,0.07q-0.06.69-.12,1.39c0.1,7.79-5.9,11.89-10.32,16.91-1.42,1.62-3.35,1.56-5.13.23l-0.48-17.12v-4.31Z" transform="translate(-12.28 -12.18)"/><path class="cls-27" d="M427.06,174q0-.7.09-1.41c8.13-4.37,25.15,0,29.15,7.45l-6.12,15.48c-6,10.6-11.61,21.41-15.75,32.91-0.18,3.73,1.54,9-5.65,7.06-3.59-6.68-3.08-14.16-3.58-21.3-0.78-11.15-.27-22.38-0.21-33.57C425,178.14,425.21,175.79,427.06,174Z" transform="translate(-12.28 -12.18)"/><path class="cls-28" d="M456.29,180c-9.5-3.34-19-6.53-29.15-7.44q-0.07-.65-0.12-1.3l1.44-5.82c5.22-.62,7.53-5.23,11.08-8.13,3.95-3.23,7.49-7.2,13.37-6.23,15.13,6.3,15.15,6.31,7.81,20.88C459.35,174.67,457.78,177.31,456.29,180Z" transform="translate(-12.28 -12.18)"/><path class="cls-29" d="M452.92,151.06c-6.2,5.36-12.34,10.81-18.64,16.05-2.42,2-5.48,4.36-5.8-1.69l1.44-22.71,14.57,4.06Z" transform="translate(-12.28 -12.18)"/><path class="cls-12" d="M429.89,235.08l4.53-6.7c8.46,12.46,12.46,26.91,18.23,40.57,4.59,10.86,9.62,21.54,14.45,32.3h0c-4.84,6.75-11.51,5.42-18,3.74-2.24-.58-4.36-1.43-6.71-1.35-5.71-2.61-6.23-8.59-7.49-13.41-1.17-4.47-3.09-7.46-6.84-9.63-7-3.71-13.75.19-20.63,0.51a102,102,0,0,1-27.5,0,31.3,31.3,0,0,1-18.85-9.63C348.87,261,350.57,242.43,364.72,233a37,37,0,0,1,8.69-4.69c5.09-.35,10.23.26,15.27-0.88,10.17,0.5,20.44-.6,30.49,2C423.22,230.46,427.2,231.53,429.89,235.08Z" transform="translate(-12.28 -12.18)"/><path class="cls-30" d="M64.14,241.19L79.59,224q33.7,22.66,67.44,45.26c1.51,1,3.52,1.28,5.3,1.9v1.46l-1.21,0c-29-.3-58,1.1-87,2.81Q64.15,258.34,64.14,241.19Z" transform="translate(-12.28 -12.18)"/><path class="cls-31" d="M443,299.78c7.89,3,15.9,4.13,24.14,1.48q0,1.43,0,2.85L465.69,307q-4.22,6.39-8.43,12.79c-1,1.56-1.88,3.33-4.25,2.9a1.4,1.4,0,0,1-.63.29C445.58,321.54,439.14,305.64,443,299.78Z" transform="translate(-12.28 -12.18)"/><path class="cls-3" d="M464.25,464.25c2.68-1.53,5.64-1.41,8.58-1.43C470.15,464.36,467.19,464.24,464.25,464.25Z" transform="translate(-12.28 -12.18)"/><path class="cls-32" d="M374.17,232.46c-11,4.47-18.65,11-17.28,24.5,0.52,5.17,3.13,8.78,6,12.52a19.79,19.79,0,0,1-.28,13.23c-4.2,12.56-7.51,25.41-11.65,38-1,3-2,5.8-4.67,7.7-5,1.1-9.82.37-14.62-1-14.86-4.14-29.65-8.55-44.54-12.61-4.28-1.17-7.27-4.11-10.87-6.21-5.53-10.52-7.81-22-9.3-33.58-0.83-6.49-1.16-13-1.72-19.56l1.91-14.3q51.84-14,103.69-28.06c3-.8,6-1.31,9-2l1,0.67C382.13,219.84,381.14,227.13,374.17,232.46Z" transform="translate(-12.28 -12.18)"/><path class="cls-33" d="M429.89,235.08c-4.68,1-8.79-1.33-13.07-2.38-9.37-2.31-18.91-1-28.34-1.74-5.93-2.66-7.18-8.05-7.66-13.67-0.18-2.07.19-4.16-.91-6.08v0q0-.69,0-1.38c10-4.65,17.2-13.1,25.91-19.51,7.2-5.3,13.34-12,21.27-16.33a39.84,39.84,0,0,1,1.42,13.42C427.66,203.32,429.86,219.17,429.89,235.08Z" transform="translate(-12.28 -12.18)"/><path class="cls-27" d="M443,299.78l10,22.88,1.26,4.32c-0.49,4.13-3.13,6.85-6.38,8.85-4.17,2.57-7.62,6.35-12.61,7.57a10.94,10.94,0,0,1-2.45-.39,4.25,4.25,0,0,1-1.94-1.71c-0.58-1.26-1.59-2.29-1.82-3.72,2.51-11.13-.06-22.18-0.68-33.23-0.41-7.32-.62-14.61-0.39-21.91,0.09-2.72,0-5.84,3.43-7.06Z" transform="translate(-12.28 -12.18)"/><path class="cls-34" d="M434.25,341.44l1.41-.15c8.76-2.72,17.44-3.89,25.76,1.43,6.05,12.8,6,12.79-6.55,18.78-5.1,2.42-10,5.3-15.85,5.81-3.79.57-4.76-2-5.61-4.9a36.15,36.15,0,0,1-.84-18.92A7.89,7.89,0,0,1,434.25,341.44Z" transform="translate(-12.28 -12.18)"/><path class="cls-35" d="M434.16,342.76c0.74,8.36,1.06,16.79,4.85,24.55l-14.78,5.51-12.88,1.37c-1.8-1.88-1.34-3.86-.18-5.81a151.42,151.42,0,0,1,16.34-22.9C429.17,343.6,431.13,341.66,434.16,342.76Z" transform="translate(-12.28 -12.18)"/><path class="cls-36" d="M461.42,342.73c-8.61-.09-17.25.51-25.76-1.43,5.6-5.56,12.17-9.84,18.61-14.3Z" transform="translate(-12.28 -12.18)"/><path class="cls-21" d="M276.29,308.63c19.35,3.67,37.84,10.5,56.86,15.4,4.12,1.06,8.28,2,12.43,2.94,1.74-1.25,2.9-.68,3.66,1.15-0.06,2.94-2.19,3.8-4.49,4.49-8.57,4.82-16.3,10.94-24.74,16a26.81,26.81,0,0,1-11.61,4.15C293.71,340.95,282.42,326.67,276.29,308.63Z" transform="translate(-12.28 -12.18)"/><path class="cls-37" d="M308.39,352.76c10.53-9,22.83-15.36,34.32-22.91,4.39,0,5.73,3.11,6,6.53,0.79,9.94.32,19.94,1.39,29.88a5.38,5.38,0,0,1-3.27,5.8c-11.31-2.44-21.24-8.11-31.33-13.41Z" transform="translate(-12.28 -12.18)"/><path class="cls-38" d="M346.84,372.05c-0.47-11.39-.92-22.78-1.44-34.17a15.68,15.68,0,0,0-2.68-8l5.73-1.44c1.73-3.61,4.88-3.18,8-2.73,22.72,3.28,45.27,7.62,68,10.81,3.45,0.49,5.85,2.74,8.39,4.8l1.43,0.15c0,0.44-.05.88-0.08,1.32-8.74,9.65-15.54,20.72-22.81,31.44-14.25,4.17-28.81,3.39-43.27,2.14C360.94,375.72,353.56,375.22,346.84,372.05Z" transform="translate(-12.28 -12.18)"/><path class="cls-39" d="M432.81,341.29q-37.6-5.86-75.21-11.72c-3-.47-6.11-0.78-9.16-1.16L345.57,327l17.34-57.5c13.85,10.29,29.57,10,45.57,8,3.35,1.76,5,4.8,6.31,8.17,6.81,17.31,14.94,34.17,18,52.76Z" transform="translate(-12.28 -12.18)"/><path class="cls-33" d="M432.78,338.43a540.94,540.94,0,0,1-24.31-60.93,68.84,68.84,0,0,0,17.66-4.24c2.77-1.14,4.49-1,5.28,2.13C430.73,296.42,433.87,317.38,432.78,338.43Z" transform="translate(-12.28 -12.18)"/><path class="cls-39" d="M379.9,211.21c4.09,6,5.9,13.08,8.57,19.74l-14.31,1.5C376.11,225.38,379,218.57,379.9,211.21Z" transform="translate(-12.28 -12.18)"/></g></svg>