<?xml version="1.0" encoding="utf-8"?>
<!-- Generator: Adobe Illustrator 24.0.0, SVG Export Plug-In . SVG Version: 6.00 Build 0)  -->
<svg version="1.1" id="Capa_1" xmlns="http://www.w3.org/2000/svg" xmlns:xlink="http://www.w3.org/1999/xlink" x="0px" y="0px"
	 viewBox="0 0 360 360" style="enable-background:new 0 0 360 360;" xml:space="preserve">
<style type="text/css">
	.st0{fill:#0D47A1;}
	.st1{fill:#1565C0;}
	.st2{fill:#1E88E5;}
	.st3{fill:#29B6F6;}
	.st4{fill:#00E5FF;}
	.st5{fill:#18FFFF;}
	.st6{fill:#448AFF;}
	.st7{fill:#40C4FF;}
</style>
<path class="st0" d="M282.5,360h-205C34.7,360,0,325.3,0,282.5v-205C0,34.7,34.7,0,77.5,0h205C325.3,0,360,34.7,360,77.5v205
	C360,325.3,325.3,360,282.5,360z"/>
<path class="st1" d="M360,77.5C360,34.7,325.3,0,282.5,0h-205C34.7,0,0,34.7,0,77.5v90.3c30,32.2,85,71.4,136.5,71.1
	c68.5-0.4,170.1-27.2,223.5-84.8V77.5z"/>
<path class="st2" d="M360,77.5C360,34.7,325.3,0,282.5,0h-205C34.7,0,0,34.7,0,77.5V165c30,35,72.2,48.6,136.9,49.1
	c104.5,0.8,186.3-48.3,223.1-94.1V77.5z"/>
<path class="st3" d="M360,77.5C360,34.7,325.3,0,282.5,0h-205C34.7,0,0,34.7,0,77.5v81.8c44.1,26.7,90.8,32.6,126.7,33.4
	c104.9,0.6,199.4-52.4,233.3-114V77.5z"/>
<path class="st4" d="M282.5,0h-205C34.7,0,0,34.7,0,77.5v59.8c41.7,27.1,84.7,34.8,129.2,34.5c71.9,0,187.2-38.3,222.7-128.8
	C339.1,17.5,312.9,0,282.5,0z"/>
<path class="st5" d="M282.5,0h-205C34.7,0,0,34.7,0,77.5v36.9c47.5,32,105.4,46,177.8,28.7c89.4-21.5,140.1-69.3,158.3-121.5
	C322.2,8.2,303.3,0,282.5,0z"/>
<path class="st6" d="M145.4,0H77.5C34.7,0,0,34.7,0,77.5v95.3l0.6,0.9c42.5,60,147.5,98.7,216.2,35.6c40-50,16.9-131.9-13.1-158.8
	C188.7,37.1,165.1,16.8,145.4,0z"/>
<path class="st7" d="M149.7,0H77.5C34.7,0,0,34.7,0,77.5v97.2c50.8,39.5,130.1,55.1,185.6,4.1c40-50,16.9-131.9-13.1-158.8
	C166.1,14.3,158.2,7.4,149.7,0z"/>
<path class="st4" d="M77.5,0C34.7,0,0,34.7,0,77.5v79.3c46.9,19.8,103.1,19.7,145.6-19.3C177.9,97.2,169.1,36.2,148.8,0H77.5z"/>
<path class="st5" d="M77.5,0C34.7,0,0,34.7,0,77.5v47.3c34.8,3.8,70.6-4.6,99.8-31.4C121,66.8,124.4,31.5,118.5,0H77.5z"/>
<path d="M66.1,88.7c0,0,68.3,103.3,125.8,138.2c-21.7,7-68.9,35.5-151.2-14.9c21,28.7,58.1,86.4,148.9,80.9
	c31.8-1.5,51.2-11.6,69.1-18.6c17.9-7,34.9-6.2,49.7,20.2c3.1-24.1,3.9-46.6-21-72.2c0,0,24.6-93.6-80-167.5
	c21.7,43.5,34.3,68,24.1,127.9c-23.3-15.5-109.3-84.8-128.7-107.3c14,24.9,54.2,79.4,68.2,93.3C146.1,151.6,66.1,88.7,66.1,88.7z"/>
</svg>
