<svg id="Capa_1" data-name="Capa 1" xmlns="http://www.w3.org/2000/svg" viewBox="0 0 119.72 124.09"><defs><style>.cls-1{fill:#16a085;}.cls-2{font-size:12.26px;font-family:Montserrat-Black, Montserrat;font-weight:800;}.cls-2,.cls-7{fill:#1abc9c;}.cls-3,.cls-4,.cls-5,.cls-6{fill:none;}.cls-3{stroke:#524837;}.cls-3,.cls-4,.cls-6{stroke-linecap:round;stroke-linejoin:round;stroke-width:1.41px;}.cls-4,.cls-5{stroke:#1abc9c;}.cls-5{stroke-miterlimit:10;}.cls-6{stroke:#a87b2e;}</style></defs><title>logo</title><path class="cls-1" d="M38.46,74.53H29.13a.47.47,0,0,1-.34-.13l-3.57-3.32a.49.49,0,0,1-.12-.54.48.48,0,0,1,.46-.31H42a.49.49,0,0,1,.33.85L38.79,74.4A.46.46,0,0,1,38.46,74.53Zm-9.14-1h9l2.51-2.34h-14Z"/><path class="cls-1" d="M42,71.21a.48.48,0,0,1-.46-.32L33.79,50,26,70.89a.5.5,0,0,1-.63.29.48.48,0,0,1-.29-.63l8.23-22.12a.5.5,0,0,1,.46-.32.49.49,0,0,1,.46.32l8.24,22.12a.48.48,0,0,1-.29.63A.51.51,0,0,1,42,71.21Z"/><path class="cls-1" d="M31.65,49.86c-.1,0-.2-.09-.25-.24a4.24,4.24,0,0,1-.21-1.35c0-1.47.69-2.66,1.54-2.67l13.76-1.16c.16,0,.29.19.3.46s-.11.51-.27.52L32.76,46.59h0c-.54,0-1,.75-1,1.68a2.91,2.91,0,0,0,.13.85.7.7,0,0,1-.1.67A.17.17,0,0,1,31.65,49.86Z"/><path class="cls-1" d="M46.29,51h0l-10.16-.24c-.12,0-.22-.18-.22-.4s.1-.39.23-.39h0l10.16.24c.12,0,.22.18.22.4S46.41,51,46.29,51Z"/><path class="cls-1" d="M90.59,74.53H81.26a.46.46,0,0,1-.33-.13l-3.57-3.32a.49.49,0,0,1,.33-.85H94.16a.49.49,0,0,1,.34.85L90.93,74.4A.47.47,0,0,1,90.59,74.53Zm-9.14-1h9l2.51-2.34h-14Z"/><path class="cls-1" d="M94.16,71.21a.49.49,0,0,1-.46-.32L85.93,50,78.15,70.89a.49.49,0,0,1-.92-.34l8.24-22.12a.49.49,0,0,1,.46-.32.5.5,0,0,1,.46.32l8.23,22.12a.49.49,0,0,1-.28.63A.57.57,0,0,1,94.16,71.21Z"/><path class="cls-1" d="M88.07,49.86a.19.19,0,0,1-.14-.07.7.7,0,0,1-.1-.67,2.91,2.91,0,0,0,.13-.85c0-.93-.44-1.68-1-1.68h0L73.21,45.42c-.16,0-.28-.24-.27-.52s.14-.47.3-.46L87,45.6c.85,0,1.54,1.2,1.54,2.67a4.24,4.24,0,0,1-.21,1.35C88.27,49.77,88.17,49.86,88.07,49.86Z"/><path class="cls-1" d="M72.88,50.94c-.13,0-.24-.16-.24-.36s.1-.37.23-.37L83.58,50h0c.13,0,.24.16.24.36s-.1.37-.23.37l-10.71.22Z"/><text class="cls-2" transform="translate(23.65 107.11) rotate(33.1)">N</text><text class="cls-2" transform="translate(33.11 113.15) rotate(21.9)">O</text><text class="cls-2" transform="translate(43.88 117.26) rotate(11.77)">T</text><text class="cls-2" transform="matrix(1, 0.04, -0.04, 1, 52.48, 119.06)">A</text><text class="cls-2" transform="translate(63.61 119.37) rotate(-8.01)">R</text><text class="cls-2" transform="translate(73.61 117.74) rotate(-15.56)">I</text><text class="cls-2" transform="translate(78.85 116.43) rotate(-23.83)">O</text><text class="cls-2" transform="matrix(0.83, -0.56, 0.56, 0.83, 89.41, 111.52)">S</text><path class="cls-3" d="M5.54,84.27A59.18,59.18,0,0,1,55.11,1.84"/><path class="cls-3" d="M64.61,1.84a59.18,59.18,0,0,1,49.57,82.43"/><path class="cls-4" d="M10.68,82A53.58,53.58,0,0,1,51.2,8"/><path class="cls-4" d="M68.54,8A53.58,53.58,0,0,1,109,82"/><path class="cls-4" d="M13.23,80.91A50.82,50.82,0,0,1,49.15,11.18"/><path class="cls-4" d="M70.49,11.16a50.78,50.78,0,0,1,36,69.74"/><path class="cls-4" d="M15.65,79.84A48.17,48.17,0,0,1,47.09,14.4"/><path class="cls-4" d="M72.64,14.41a48.16,48.16,0,0,1,31.43,65.43"/><path class="cls-3" d="M41.51,23.13a41.94,41.94,0,0,0-18.6,57.46L19.6,82.47"/><path class="cls-3" d="M100.12,82.47l-3.31-1.88a41.94,41.94,0,0,0-18.6-57.46"/><path class="cls-3" d="M45.69,93.43v3.1c0,2.07,6.35,3.75,14.17,3.75S74,98.6,74,96.53v-3.1"/><path class="cls-5" d="M46.53,35.17s6.53,3.85,9.31,5.69"/><path class="cls-4" d="M47.7,61a32,32,0,0,1,8.14,5.21"/><path class="cls-5" d="M48.3,63.59a36.82,36.82,0,0,1,5.29,4.09"/><path class="cls-5" d="M48,22.51s.22,4.65,7.85,11.26"/><path class="cls-6" d="M49.21,20.24"/><line class="cls-5" x1="46.51" y1="37.74" x2="51.92" y2="41.4"/><path class="cls-5" d="M59.86,11.82V93.69c0-15.39,6.85-15.15,9.85-21,3.15-6.19,1.83-11.7,3.59-14.41a40.21,40.21,0,0,0-7.37,3.54A12.87,12.87,0,0,1,69.08,58a11.72,11.72,0,0,0,4.06-7.74c.11-1.42.16-2.86.16-4.3,0-4.42-.43-10,.48-14.23l-8.51,5.11s6.06-5.12,6.9-8.1c2.5-8.91-6.69-20.12-12.86-27.6-2.15,9.69-14.38,18.6-11.76,27.6.87,3,6.9,8.1,6.9,8.1L45.94,31.7c.91,4.22.48,9.81.48,14.23,0,1.44,0,2.88.16,4.3A11.69,11.69,0,0,0,50.65,58a13,13,0,0,1,3.14,3.81,40.21,40.21,0,0,0-7.37-3.54c4.45,6.81-.48,14.63,9.68,22.08.82.61,2.27,1.61,2.31,6.56"/><path class="cls-4" d="M73.19,35.17S66.66,39,63.88,40.86"/><path class="cls-5" d="M72,61a32,32,0,0,0-8.14,5.21"/><path class="cls-5" d="M72,63.34a38.07,38.07,0,0,0-5.89,4.34"/><path class="cls-5" d="M71.92,21.08s-.41,6.08-8,12.69"/><path class="cls-6" d="M70.51,20.24"/><line class="cls-4" x1="73.21" y1="37.74" x2="67.8" y2="41.4"/><path class="cls-3" d="M56.91,88.9c-6.41.36-11.22,1.86-11.22,3.66,0,2.07,6.35,3.74,14.17,3.74S74,94.63,74,92.56c0-1.8-4.81-3.3-11.22-3.66"/><path class="cls-7" d="M33,83.93a1.56,1.56,0,0,1-.91,1,2.07,2.07,0,0,1-.73.13,1.83,1.83,0,0,1-1-.26A1.71,1.71,0,0,1,29.7,84a2.44,2.44,0,0,1-.24-1.12,2.62,2.62,0,0,1,.23-1.13,1.7,1.7,0,0,1,1.63-1,2,2,0,0,1,.73.11,1.46,1.46,0,0,1,.53.34,1.63,1.63,0,0,1,.33.56L32.6,82a1.24,1.24,0,0,0-.45-.65,1.43,1.43,0,0,0-.81-.22,1.53,1.53,0,0,0-.81.22,1.47,1.47,0,0,0-.55.63,2.6,2.6,0,0,0,0,2,1.52,1.52,0,0,0,.54.63,1.6,1.6,0,0,0,1.65,0,1.24,1.24,0,0,0,.48-.69Z"/><path class="cls-7" d="M35.17,80.87a2.07,2.07,0,0,1,1.51.52,2,2,0,0,1,.53,1.5,2.1,2.1,0,0,1-.53,1.54,2,2,0,0,1-1.51.54H33.88v-4.1Zm0,3.81a1.64,1.64,0,0,0,1.26-.47,1.86,1.86,0,0,0,.44-1.32,1.78,1.78,0,0,0-.44-1.29,1.67,1.67,0,0,0-1.26-.45h-1v3.53Z"/><path class="cls-7" d="M42.05,80.87V85h-.3V81.91l0-.74h0L40.29,85H40l-1.49-3.8h0l0,.74V85h-.3v-4.1h.46L39.94,84l.2.63h0l.2-.62,1.23-3.11Z"/><path class="cls-7" d="M46.05,85h-.36l-1.24-1.85L43.18,85h-.37l1.47-2.11-1.34-2h.37l1.16,1.73,1.18-1.73H46l-1.36,2Z"/><path class="cls-7" d="M77.28,83.93a1.74,1.74,0,0,1-.35.59,1.79,1.79,0,0,1-.56.38,2.11,2.11,0,0,1-.73.13,1.86,1.86,0,0,1-1-.26A1.78,1.78,0,0,1,74,84a2.87,2.87,0,0,1,0-2.25,1.71,1.71,0,0,1,.65-.73,1.8,1.8,0,0,1,1-.25,2,2,0,0,1,.73.11,1.38,1.38,0,0,1,.53.34,1.37,1.37,0,0,1,.33.56l-.3.14a1.27,1.27,0,0,0-.46-.65,1.32,1.32,0,0,0-.81-.22,1.47,1.47,0,0,0-.81.22,1.45,1.45,0,0,0-.54.63,2.54,2.54,0,0,0,0,2,1.52,1.52,0,0,0,.54.63,1.6,1.6,0,0,0,1.65,0,1.21,1.21,0,0,0,.49-.69Z"/><path class="cls-7" d="M79.66,80.87a2.07,2.07,0,0,1,1.51.52,2,2,0,0,1,.53,1.49,2.12,2.12,0,0,1-.53,1.55,2,2,0,0,1-1.51.53h-1.3V80.87Zm0,3.81a1.64,1.64,0,0,0,1.26-.47,1.87,1.87,0,0,0,.43-1.33,1.77,1.77,0,0,0-.43-1.28,1.67,1.67,0,0,0-1.26-.45h-1v3.53Z"/><path class="cls-7" d="M86.71,80.87V85h-.3v-3l0-.74h0L85,85h-.29l-1.49-3.79h0l0,.74v3h-.3V80.87h.47L84.6,84l.21.63h0L85,84l1.24-3.11Z"/><path class="cls-7" d="M90.89,85h-.36l-1.25-1.84L88,85h-.37l1.46-2.1-1.34-2h.38l1.16,1.73,1.18-1.73h.35l-1.37,2Z"/><path class="cls-3" d="M59.86,123.38a62.89,62.89,0,0,0,57.62-37.67l-15.59-6.82a45.89,45.89,0,0,1-84.06,0L2.24,85.71A62.89,62.89,0,0,0,59.86,123.38Z"/></svg>