<?xml version="1.0" encoding="UTF-8"?>
<svg width="64px" height="64px" viewBox="0 0 64 64" version="1.1" xmlns="http://www.w3.org/2000/svg" xmlns:xlink="http://www.w3.org/1999/xlink">
    <title>icon-visionos-i</title>
    <g id="icon-visionos-i" stroke="none" stroke-width="1" fill="none" fill-rule="evenodd">
        <path d="M28.9240081,1.61318873 C32.063303,1.61318873 35.0610408,1.70829316 37.9172184,1.89870678 C40.7304556,2.08624716 43.3098626,2.47235708 45.6550739,3.05948838 C47.9315414,3.62931999 49.9112353,4.47657245 51.5902875,5.60965178 C53.2153994,6.70630577 54.4745008,8.15934428 55.3706753,9.96604882 C56.2876383,11.8146633 56.73,14.131829 56.73,16.9088008 C56.73,19.7327104 56.1968228,22.2659825 55.1171487,24.50546 C54.055805,26.7074256 52.6089193,28.4518392 50.7671266,29.7305209 C48.9556716,30.9881404 46.9030066,31.6131887 44.6098042,31.6131903 C43.1642731,31.6157173 41.8554627,31.4193977 40.6850177,31.015439 C39.489691,30.6028076 38.3933251,30.0892916 37.3968546,29.4732525 C36.3604074,28.8323057 35.3980187,28.1935381 34.5098292,27.5567393 C33.5654066,26.8796236 32.6676222,26.3142421 31.8173287,25.859245 C30.8430051,25.337853 29.8771412,25.086388 28.9240081,25.086388 C27.9708751,25.086388 27.0050111,25.337853 26.0307178,25.8592288 C25.1806268,26.3141025 24.2831135,26.8786102 23.3390074,27.5540778 C22.4503282,28.1898709 21.4873591,28.8289953 20.4502334,29.4716533 C19.454409,30.088721 18.3586914,30.6019417 17.1639168,31.0130387 C15.9931232,31.415873 14.6892742,31.6131887 13.2538546,31.6131887 C10.9537802,31.6131887 8.89585171,30.9882747 7.08268081,29.7303359 C5.23966156,28.4516888 3.7921069,26.7073363 2.73068686,24.5054201 C1.65117343,22.2660118 1.1178498,19.7327278 1.11784219,16.9048992 C1.10705895,14.1411078 1.54631737,11.8285373 2.46802235,9.97585626 C3.36939887,8.16401162 4.63078754,6.7108807 6.25583331,5.61968358 C7.93547259,4.49181048 9.91576037,3.64703774 12.1928443,3.07699432 C14.5387667,2.48971794 17.1188616,2.10062433 19.9327338,1.90732615 C22.7883486,1.71116231 25.7854427,1.61318873 28.9240081,1.61318873 Z" id="Path-Copy-3" stroke="#EFEFEF" stroke-width="2" fill-rule="nonzero" width="58px" height="33px" transform="translate(3, 20.5)"></path>
    </g>
</svg>