<?xml version="1.0" encoding="utf-8"?>
<!-- Generator: Adobe Illustrator 24.0.0, SVG Export Plug-In . SVG Version: 6.00 Build 0)  -->
<svg version="1.1" id="After_Effects" xmlns="http://www.w3.org/2000/svg" xmlns:xlink="http://www.w3.org/1999/xlink" x="0px"
	 y="0px" viewBox="0 0 489.3 489.4" style="enable-background:new 0 0 489.3 489.4;" xml:space="preserve">
<style type="text/css">
	.st0{fill:#FFFFFF;}
	.st1{fill:#F16836;}
</style>
<title>LC</title>
<rect x="34" y="92.9" class="st0" width="430.2" height="306"/>
<path class="st1" d="M-0.1,489.2V0h489v489.2H-0.1z M453.7,146.1l-4.3-2.5c-27.6-14.2-58.7-20.6-89.6-18.2
	c-26.7,1.7-52,12.9-71.2,31.7c-22.8,23.4-35.4,54.9-34.9,87.6c-0.3,16.2,2.4,32.2,8.1,47.4c15.4,43.7,56.7,72.9,103.1,72.9
	c18.8,0.8,37.6-1.8,55.5-7.6c11.4-3.5,22.3-8.9,33.7-13.4l-36.7-82.8c-16.6,6-34.5,7.6-51.9,4.6c-10.8-1.6-19.4-10-21.3-20.8
	c-2.9-10.7,3.3-21.7,14-24.6c1.7-0.5,3.5-0.7,5.3-0.7c14.6-1.6,29.2-1.6,43.8,0c10.1,0,10.1,2.3,14.4-7.3l15.2-31.4
	C442.6,170.4,447.9,158.5,453.7,146.1z M225.8,311h-73.7c-11.6,0-12.4,0-12.4-12.7V135.5c0-5.3,0-7.6-7.1-7.6c-24.5,0-49,0-73.7,0
	c-6.1,0-7.1,2.3-7.1,7.6c0,71.7,0,143.5,0,215.2c0,9.4,0,9.4,9.6,9.4H218h6.8v-48.6l0,0L225.8,311z"/>
</svg>
