<svg id="Capa_1" data-name="Capa 1" xmlns="http://www.w3.org/2000/svg" viewBox="0 0 88.53 101.5"><defs><style>.cls-1{fill:#fdfdfd;}.cls-2{fill:#7b7b7b;}.cls-3{fill:gray;}.cls-4{fill:none;stroke:#7c7c7c;stroke-miterlimit:10;}.cls-5{fill:#797979;}.cls-6{fill:#919191;}.cls-7{fill:#7a7a7a;}.cls-8{fill:#3f3f3f;}.cls-9{fill:#646464;}.cls-10{fill:#fcfcfc;}.cls-11{fill:#fbfbfb;}.cls-12{fill:#eee;}.cls-13{fill:#999;}.cls-14{fill:#f4f4f4;}.cls-15{fill:#676767;}.cls-16{fill:#f9f9f9;}.cls-17{fill:#fafafa;}.cls-18{fill:#939393;}.cls-19{fill:#8a8a8a;}.cls-20{fill:#434343;}.cls-21{fill:#f1f1f1;}.cls-22{fill:#7d7d7d;}.cls-23{fill:#e7e7e7;}.cls-24{fill:#e6e6e6;}.cls-25{fill:#cecece;}.cls-26{fill:#333;}</style></defs><title>minarte</title><path class="cls-1" d="M315,256.53l.08,1.13c-2.94,2.4-5,5.53-7.11,8.62-1.93,2.89-4.28,4.34-7.77,3.58-3.61-1.44-3.64-5.6-6.05-7.95a10.5,10.5,0,0,1-2.11-3.79,40.23,40.23,0,0,0-1.26-4.18c-3-6.68-6.21-13.24-9.4-19.82-3-6.09-2.34-7.21,4.33-7.38,2.73-.07,5.08-.32,7-2.81,2.79-3.57,4.41-3.34,6.47.77,3.88,7.71,7.66,15.47,11.49,23.21a46.82,46.82,0,0,0,3.82,6.4A3.59,3.59,0,0,1,315,256.53Z" transform="translate(-239.88 -169.71)"/><path class="cls-2" d="M240.76,230.91c3.56-5.81,7-11.72,13.33-15.08a7.16,7.16,0,0,0,2.54-2.94c6.85-10.77,14-21.38,20.33-32.45,2.77-4.84,7.12-7.1,11.35-9.4,5.74-3.13,9.45-.66,11.86,6.73.42.86,0,1.28-.78,1.52-2.17-1.78-4.23-2.89-6,.56a3.82,3.82,0,0,1-2.29,1.85,5.33,5.33,0,0,1-2,.05c-2.44-.22-2.88,1.89-3.83,3.33-8.39,12.75-16.38,25.74-24.82,38.45-4.05,6.1-4,6.14,1.67,11.1a5.82,5.82,0,0,1,1.32,1.48,2.22,2.22,0,0,1-.33,2.12,2.72,2.72,0,0,1-2.19.28,10.4,10.4,0,0,1-3.23-2.2c-3.17-3-6.61-4.65-11.11-3.21a6,6,0,0,1-4.32-.49A4.52,4.52,0,0,1,240.76,230.91Z" transform="translate(-239.88 -169.71)"/><path class="cls-3" d="M240.76,230.91,242,232a15.09,15.09,0,0,1,3.39,6c4.34,12.83,16,19.21,24.45,28.36-1.83-3.3-2.51-7.17-5.15-10a2.16,2.16,0,0,1,1.09-1.68c3.07.2,5.13-2,7.59-3.23,1.52-.2,2.23-2,3.89-2,2,.71,2.79,2.36,3.3,4.23-.07,1.83,1,3.79-.63,5.44-1.31.23-2.19-.55-3-1.36-1-1-2-1.88-3.43-.75a3.54,3.54,0,0,0-1.25,4c1.08,4,4,6.57,8.17,6.61,5,0,10,.23,14.93-.19,1.91-.57,2.66,2.18,4.59,1.6,3.5.42,5.68-1.09,7.81-4s3.06-6.85,7.35-7.5c-2.67,3.78-5.37,7.54-8,11.34-1.2,1.73-2.88,2-4.8,2-9.63,0-19.27.14-28.91.22-1.66,0-3.49.27-4.63-1.24-3.69-4.89-9.5-7.7-12.73-13a3.34,3.34,0,0,0-1.29-1.45c-10-3.89-9.57-14.74-14.61-21.93A2,2,0,0,1,240.76,230.91Z" transform="translate(-239.88 -169.71)"/><path class="cls-4" d="M304.85,188.07c4.18,8.52,8.44,16.86,14,24.7a33.28,33.28,0,0,1,6,21.23c-2.5-.15-2.5-.15-3-4.86-.83-4-2.81-7.72-3.58-11.68-5.08,6.44-5.08,6.44-3.07,14.57.48,1.92.94,3.84,1.48,5.75a7.47,7.47,0,0,1,.23,1.48,8.93,8.93,0,0,1-.23,2.31c-1.27,2,1.07,5.69-2.93,6.47-2-4.65-1.42-9.79-2.79-14.59-.82-2.88-1.29-5.85-2.29-8.69-.39-1.44.46-2.41,1.31-3.37a33.49,33.49,0,0,0,3.17-4.41c2.67-4.26,1.66-6.58-3.3-7.71-1.52-.35-3.43.12-4.17-1.92,1.82-1.84-1-2.35-1.06-3.67a7.08,7.08,0,0,0,.1-8.57c-1.11-1.75-2.11-3.7-1.54-6C303.56,188.45,304,187.89,304.85,188.07Z" transform="translate(-239.88 -169.71)"/><path class="cls-5" d="M322.52,228.8a1.61,1.61,0,0,1,.89,2.4c-.63,1.52-.29,2.57,1.52,2.8,4.68,3.42,4.45,6.87.4,10.76-3.77,3.61-5.4,9.14-10.33,11.77l-1.5-1.32a3.88,3.88,0,0,1,1.06-1.61,12.73,12.73,0,0,0,1.84-1.83c2.57-3,4.48-6.57,7.1-9.57.84-1,2-2.17.91-3.48s-2.42-.11-3.56.4c-1.55.71-3.07,1.29-4.69.22l-.36-1.88C316.8,233.62,318.69,230.46,322.52,228.8Z" transform="translate(-239.88 -169.71)"/><path class="cls-6" d="M304.85,188.07l-1,1.19c-3.67-2.48-5.36-5.85-4.65-10.3l1-1.19A44.74,44.74,0,0,1,304.85,188.07Z" transform="translate(-239.88 -169.71)"/><path class="cls-2" d="M315,254l-1.51,1.24c-5.56-8.26-9-17.62-13.78-26.3-1.25-2.26-2.32-4.63-3.55-7.11-2.73,2-2.72,6.13-6.69,5.91-2.93-.16-5.87,0-9.47,0L292,254c-1.53,1-2.37-1.63-3.9-.75-5.21-4.16-6.89-10.71-10.69-15.84a55.81,55.81,0,0,1-2.94-5.26c-.29,4-2.36,6.3-6.23,7-1.86.15-3.74.41-5.26-1.08l0-2.18c-.37-2.22,1.23-3.41,2.69-4.25,4-2.28,5.23-5.49,4.12-9.8a5.87,5.87,0,0,1,2.86-2c4.35,2.46,8.21,6.16,13.92,4.91,1.78-.39,3.56-.45,4.72-2.69-6.42-2-12.84-1.48-19.12-2.12-2.56.67-3.26-1.49-4.46-2.91-.3-1.84.66-3.21,1.72-4.52,7.24-8.94,14.51-17.85,17.81-29.2A3.51,3.51,0,0,1,289,181H291c1.62,1.89,1.77,4.12,1.57,6.45a1.69,1.69,0,0,1-1,1c-4.24,2-5.58,7.12-3,11.93,2.91,5.5,6.3,10.77,8,16.83-.07,1.63,1.07,2.61,2,3.68.53.72,1,1.47,1.49,2.22,4.67,9.24,9.46,18.41,13.8,27.81C314.31,251.89,315.51,252.62,315,254Z" transform="translate(-239.88 -169.71)"/><path class="cls-7" d="M279.85,259.39c.84-1.82-1.31-3.54-.16-5.36,4.08-3.7,7-1.2,9.77,1.84a9.52,9.52,0,0,0,3.69,2.14l1.89,3.1c.6,6.57-3.68,1.62-5.56,2.37C286.65,261.22,282.93,261.05,279.85,259.39Z" transform="translate(-239.88 -169.71)"/><path class="cls-8" d="M290,263.06a1.43,1.43,0,0,1,2.38-.31c2.85,2.64,2.07-.66,2.71-1.64,2.61,2.07,2.53,5.78,4.88,8-2.06,2.4-2.7-.64-4-1.06C292.94,267.57,290.53,266.41,290,263.06Z" transform="translate(-239.88 -169.71)"/><path class="cls-9" d="M293.15,258c-1.79,1.23-2.87-.43-4.21-1-.71-1.19-1.12-2.39-.16-3.66,1.54-1.94,2.09.78,3.24.68C292.79,255.23,293.65,256.43,293.15,258Z" transform="translate(-239.88 -169.71)"/><path class="cls-1" d="M264.64,256.18c5.71,2.31,3.88,9.22,8.91,12.28-3.54,1.36-4.53-.67-5.54-1.92-3.63-4.48-7.76-9.5-12-12.1-8.87-5.37-9.61-14.5-13.94-21.91-.07-.12,0-.33,0-.49a11,11,0,0,0,2.93-.06c6.93-2.08,11.9,1,16.2,6,2.23,2.87.37,6.49,1.78,9.49C267.68,249.54,266.49,252.79,264.64,256.18Z" transform="translate(-239.88 -169.71)"/><path class="cls-10" d="M289,181c-3,12.07-9.86,21.88-17.82,31.08A14.78,14.78,0,0,0,268,217c1.24,1.45,2.35,2.95,2,5,2.77,3.3,2.26,6-1.27,8.47a54.85,54.85,0,0,0-5.74,5.38c-2.3-.35-3.53-2.38-5.36-3.44-2.37-1.37-2.47-2.74-.93-5.09,9-13.76,17.77-27.64,26.63-41.48,1.16-1.81,2.34-3.62,3.5-5.43C288.11,178.4,288.49,180,289,181Z" transform="translate(-239.88 -169.71)"/><path class="cls-11" d="M243.59,229.24c2.3-2.83,4.18-6.19,7-8.41,13.7-10.93,19.21-27.54,29-41.17,1.83-2.55,4.38-2.83,6.43-4.36,1.33,1.58.27,2.49-.32,3.4q-15.6,24.36-31.22,48.7C251.58,231.84,247.24,228.9,243.59,229.24Z" transform="translate(-239.88 -169.71)"/><path class="cls-10" d="M292.21,187.94c-.32-2.33-2.12-4.4-1.23-6.95a27.41,27.41,0,0,0,2.25-2.57c2.35-3.48,4.35-3.93,5.94.54a34.21,34.21,0,0,0,4.65,10.3,69.24,69.24,0,0,0,3,7.25c1.77,3.23,1.16,5.59-1.89,7.47a5.16,5.16,0,0,1-.46,2.15c-.54,1.33-.65,3.15-2.55,3.22-1.59.05-2.07-1.45-2.56-2.65C296.89,200.49,293.27,194.71,292.21,187.94Z" transform="translate(-239.88 -169.71)"/><path class="cls-12" d="M290.36,178.51c-.77-2-4.1-3.51-1.32-5.76,1.51-1.23,4.51-1.84,5.32-.13C295.78,175.65,291.82,176.42,290.36,178.51Z" transform="translate(-239.88 -169.71)"/><path class="cls-13" d="M262,249c-2.27-3.54-.41-7.4-.84-11.09l1.86.11,6.24.13a10.27,10.27,0,0,0-5.54,9.42A3.49,3.49,0,0,1,262,249Z" transform="translate(-239.88 -169.71)"/><path class="cls-10" d="M263.13,247.9c0-.32-.07-.65-.12-1-.81-5,.06-8.75,6.23-8.75,3.71-1.11,3.88-4.56,4.76-8.54,5.29,8.46,10,16.07,14.78,23.67.06,1.22.11,2.44.16,3.66-2.45-3-5.13-5.22-9.25-3l-2.49-4.1c-1.81-.37-2.94-3.12-5.3-1.5C268.86,250.06,265.88,250.76,263.13,247.9Z" transform="translate(-239.88 -169.71)"/><path class="cls-10" d="M290,263.06c1.44,2.32,4.16,3.11,5.95,5-6.38,2.32-13,1.2-19.45.86-4.18-.22-6.88-9.74-4.25-12.82,2-2.31,3.45-2.91,5,.4.53,1.13,1.75,1.93,2.66,2.89C284,258.52,287.17,260.23,290,263.06Z" transform="translate(-239.88 -169.71)"/><path class="cls-14" d="M273.91,251.87c-2.42,1.55-3.75,5.91-7.88,3.07.42-4.78,3-6.72,8.16-6.11A2.2,2.2,0,0,1,273.91,251.87Z" transform="translate(-239.88 -169.71)"/><path class="cls-5" d="M274,249.14c-4.19-.18-6.56,2.12-7.92,5.8l-1.39,1.24c-.84-.43-1.3-1.33-.72-1.93,3.18-3.24.91-4.3-1.94-5.21l1.15-1.14c3.11,1.46,6.07.89,8.94-.71C273,247.56,274.62,247.25,274,249.14Z" transform="translate(-239.88 -169.71)"/><path class="cls-15" d="M274,249.14l-1.88-1.95c3.72-2.85,3.71,1.28,5.13,2.74-1.79-.52-.35,4.42-3.29,1.94Z" transform="translate(-239.88 -169.71)"/><path class="cls-16" d="M313.07,251.78,298.81,223c2.68-2.75,5.6-2.5,10.26.87,3.75,5.67,3.74,12.32,4.78,18.68a44.25,44.25,0,0,1,.23,5.41C314.92,249.55,315.85,251.16,313.07,251.78Z" transform="translate(-239.88 -169.71)"/><path class="cls-10" d="M305.83,207.14c2.68,1.43,6.05.09,8.61,2.86,2.23,2.41,2.64,4.12.6,6.61-1.46,1.77-2.7,3.71-4,5.58-4.61.85-8.75-.74-12.88-2.44-1.22-2,.21-3.54,1.28-4.87a60,60,0,0,0,5.1-7.83A1.11,1.11,0,0,1,305.83,207.14Z" transform="translate(-239.88 -169.71)"/><path class="cls-17" d="M322.52,228.8l-6.72,8.66a31,31,0,0,1-3.24-12.32c-.34-3.87,3.51-6.31,5.76-10.08C320,220.08,322.31,224.09,322.52,228.8Z" transform="translate(-239.88 -169.71)"/><path class="cls-17" d="M316.16,239.34a8.74,8.74,0,0,0,5.42-2.06c1.56-1.35,2.78-1.09,4.22.35s.65,2.59-.26,3.81q-4.29,5.73-8.56,11.48c-2.2-.13-2.1-1.89-1.84-3.19.57-2.89,0-5.86.73-8.71Z" transform="translate(-239.88 -169.71)"/><path class="cls-18" d="M298.16,218.79a40.28,40.28,0,0,0,12.84,3.4l-1.93,1.68c-3.47.26-6.62-3.13-10.26-.87a2,2,0,0,1-.79-2A1.42,1.42,0,0,1,298.16,218.79Z" transform="translate(-239.88 -169.71)"/><path class="cls-19" d="M315.87,241c.66,3.94-1,8.1,1.11,11.9-.35.93-1.13,1.05-2,1.05l-1.94-2.19c1.54-.95.4-2.62,1-3.82C316.17,246,313.81,243,315.87,241Z" transform="translate(-239.88 -169.71)"/><path class="cls-20" d="M305.83,207.14l-.33.05h-.34c-1.82,0-1.81-1-1.25-2.28L305,204a5,5,0,0,1,1.25.68c.75.78,2.59-1.08,2.59.92S306.79,206.51,305.83,207.14Z" transform="translate(-239.88 -169.71)"/><path class="cls-10" d="M280.79,217.09c-3.21-.27-7.9,1.35-9.21-1.15s3.15-4.86,4.89-7.42c2.21-3.27,4.76-6.31,7.47-9.84,4,5.65,6.35,11.67,9.24,17.36,1.51,3-1,1.79-2.21,1.83C287.64,216.8,284.12,218.18,280.79,217.09Z" transform="translate(-239.88 -169.71)"/><path class="cls-11" d="M296.38,217.71c-3.35-6.43-6.88-12.78-10-19.33-2-4.28,1.23-7.88,2.68-11.55.54-1.37,1.14.83,1.86,1.17,4.38,7,7.22,14.72,10.07,22.37C302.16,213.43,299.77,216.4,296.38,217.71Z" transform="translate(-239.88 -169.71)"/><path class="cls-21" d="M271.73,220.11c2-2.46,4.61-1,6.88-.9,4.93.11,9.86.67,14.85,1.06-1.9,5.67-11.46,8.07-16.22,4.3-1.81-1.43-3.58-2.89-5.37-4.34Z" transform="translate(-239.88 -169.71)"/><path class="cls-22" d="M296.38,217.71c4.32-3.62,4.48-7.52,1.85-12.49-2.9-5.49-4.89-11.46-7.28-17.22l1.26-.06c3.15,6.85,6.31,13.69,9.6,20.83l2.1-3.87c.12.92.24,1.84,1.25,2.28-1.2,4.55-4.49,7.85-7,11.61-.05.74-.09,1.48-.14,2.21C297.23,220,293.65,220.45,296.38,217.71Z" transform="translate(-239.88 -169.71)"/><path class="cls-23" d="M280.06,236a85.78,85.78,0,0,0-5.91-9.54c5.06.45,5,5.33,7.06,8.36C281.57,235.89,281,236.13,280.06,236Z" transform="translate(-239.88 -169.71)"/><path class="cls-24" d="M264.43,236.66l7.33-6.83C271.54,234.44,270.43,237.14,264.43,236.66Z" transform="translate(-239.88 -169.71)"/><path class="cls-25" d="M280.06,236c.38-.39.76-.79,1.15-1.18l3.79,7.14A11.61,11.61,0,0,1,280.06,236Z" transform="translate(-239.88 -169.71)"/><path class="cls-26" d="M270,222a7.52,7.52,0,0,1-2-5c2.57-.55,1.87,2.82,3.73,3.11l.14.12C271.83,221.46,271,221.81,270,222Z" transform="translate(-239.88 -169.71)"/><path class="cls-21" d="M280.79,217.09c3.4.17,6.9-1,10.18.78C287.56,217.9,284.11,218.27,280.79,217.09Z" transform="translate(-239.88 -169.71)"/></svg>